#!OML:ASF E:\Mandelcareful walks\Project 1\Capture day 1\Session 1\Subject1.ASF
:FULLY-SPECIFIED
:DEGREES
1486
root -5.18666 16.8348 -4.50762 253.335 -85.3173 465.629
lowerback -1.99656 -1.57938 -7.99926
upperback 0.962757 -1.88136 -0.779892
thorax 2.35279 -1.06171 3.59396
lowerneck -21.6705 2.6644 -1.84765
upperneck 35.3171 3.1245 1.95283
head 16.1898 1.00092 1.69952
rclavicle -2.21051e-015 1.02374e-014
rhumerus -37.9561 -18.0636 -73.8402
rradius 23.0146
rwrist 1.16452
rhand -8.73052 -30.6457
rfingers 7.12502
rthumb 17.2058 -59.904
lclavicle -2.21051e-015 1.02374e-014
lhumerus -23.7674 6.49391 84.2063
lradius 18.4468
lwrist -5.27679
lhand -20.8175 -12.5751
lfingers 7.12502
lthumb 5.55051 17.3322
rfemur -17.4255 -15.1506 8.33161
rtibia 66.9199
rfoot -6.29746 -4.62973
rtoes 9.90417
lfemur -1.82969 -0.90525 -27.6223
ltibia 22.0513
lfoot -17.0106 7.99123
ltoes 11.2994
1487
root -5.33169 16.8316 -4.50639 256.224 -85.505 462.72
lowerback -2.34665 -1.76043 -8.01979
upperback 1.18075 -2.07794 -0.666965
thorax 2.80689 -1.18275 3.69747
lowerneck -21.826 2.70722 -1.78788
upperneck 35.2116 3.19509 1.917
head 16.1744 1.03968 1.68952
rclavicle -1.58748e-014 -1.39149e-015
rhumerus -38.2348 -19.0405 -72.9575
rradius 22.6163
rwrist 2.02245
rhand -8.59141 -30.6774
rfingers 7.12502
rthumb 17.3397 -59.9239
lclavicle -1.58748e-014 -1.39149e-015
lhumerus -22.8722 5.93573 84.3714
lradius 18.6614
lwrist -4.79523
lhand -22.286 -15.0088
lfingers 7.12502
lthumb 4.13255 14.9308
rfemur -18.3123 -15.3439 8.98116
rtibia 66.1847
rfoot -7.21034 -5.13835
rtoes 9.39442
lfemur -1.34012 -1.13936 -27.5197
ltibia 22.1047
lfoot -17.3169 7.99313
ltoes 10.4763
1488
root -5.46153 16.8197 -4.50047 260.244 -85.6406 458.7
lowerback -2.14928 -1.87926 -7.91359
upperback 1.0814 -2.26298 -0.671524
thorax 2.61026 -1.26298 3.63149
lowerneck -21.8039 2.73442 -1.58104
upperneck 35.2376 3.18291 1.82353
head 16.1903 1.04722 1.61055
rclavicle 8.25053e-015 -3.57812e-015
rhumerus -39.0164 -19.5975 -72.2333
rradius 22.3649
rwrist 2.28177
rhand -8.58401 -30.62
rfingers 7.12502
rthumb 17.3468 -59.8659
lclavicle 8.25053e-015 -3.57812e-015
lhumerus -22.3916 4.86665 84.4765
lradius 19.0658
lwrist -3.67521
lhand -21.9374 -12.905
lfingers 7.12502
lthumb 4.46922 17.0278
rfemur -19.2313 -15.5658 9.52566
rtibia 65.3487
rfoot -8.22513 -5.76525
rtoes 8.62539
lfemur -0.913868 -1.31454 -27.4961
ltibia 22.2826
lfoot -17.6562 8.00277
ltoes 10.1631
1489
root -5.58278 16.7969 -4.49084 265.877 -85.6047 453.144
lowerback -2.21232 -2.0741 -8.00305
upperback 1.1473 -2.51087 -0.655579
thorax 2.75004 -1.3949 3.67996
lowerneck -21.9222 2.73621 -1.57898
upperneck 35.0448 3.19899 1.83936
head 16.1215 1.0671 1.62001
rclavicle -1.29004e-014 -7.00716e-015
rhumerus -39.2904 -19.9394 -71.7577
rradius 22.0987
rwrist 2.24694
rhand -8.93053 -30.7986
rfingers 7.12502
rthumb 17.0133 -60.0736
lclavicle -1.29004e-014 -7.00716e-015
lhumerus -21.7011 3.92746 84.636
lradius 19.5526
lwrist -2.62859
lhand -23.2038 -11.4015
lfingers 7.12502
lthumb 3.24627 18.5535
rfemur -20.1611 -15.965 9.82547
rtibia 64.4061
rfoot -9.05713 -6.11789
rtoes 8.31178
lfemur -0.609891 -1.22449 -27.6109
ltibia 22.5548
lfoot -18.1193 7.50198
ltoes 10.2514
1490
root -5.70994 16.7709 -4.47863 271.473 -85.588 447.607
lowerback -2.1851 -2.29498 -7.9663
upperback 1.10278 -2.81106 -0.614704
thorax 2.72594 -1.54157 3.68642
lowerneck -21.899 2.76587 -1.65399
upperneck 34.9098 3.2725 1.86467
head 16.0441 1.09701 1.65534
rclavicle -4.47751e-015 1.67476e-014
rhumerus -39.8331 -20.6135 -70.8743
rradius 21.8705
rwrist 2.5885
rhand -8.86641 -30.6612
rfingers 7.12502
rthumb 17.075 -59.9308
lclavicle -4.47751e-015 1.67476e-014
lhumerus -21.3356 3.15446 84.7348
lradius 20.1276
lwrist -1.76285
lhand -23.4167 -10.7692
lfingers 7.12502
lthumb 3.04071 19.1889
rfemur -20.9093 -16.4249 10.1268
rtibia 63.3025
rfoot -9.71542 -6.29137
rtoes 9.59775
lfemur -0.289714 -1.25107 -27.6775
ltibia 22.8449
lfoot -18.059 7.20062
ltoes 10.1662
1491
root -5.83991 16.7612 -4.47309 275.229 -85.7513 443.93
lowerback -2.00981 -2.40408 -7.73567
upperback 0.917488 -2.98792 -0.570358
thorax 2.4459 -1.6107 3.60663
lowerneck -21.6489 2.79914 -1.54647
upperneck 34.8195 3.28319 1.82684
head 15.9437 1.11191 1.6146
rclavicle -2.29233e-015 8.4235e-015
rhumerus -40.7259 -21.4623 -69.8662
rradius 21.7344
rwrist 2.9004
rhand -8.58699 -30.7758
rfingers 7.12502
rthumb 17.344 -60.0219
lclavicle -2.29233e-015 8.4235e-015
lhumerus -21.1122 2.29116 84.7584
lradius 20.5319
lwrist -0.881228
lhand -21.2746 -11.401
lfingers 7.12502
lthumb 5.10922 18.5174
rfemur -21.6801 -16.5309 10.8002
rtibia 61.9804
rfoot -10.3696 -6.76544
rtoes 10.6059
lfemur -0.00754807 -1.52935 -27.5202
ltibia 23.09
lfoot -18.3475 7.23981
ltoes 9.78065
1492
root -5.96978 16.7588 -4.47338 277.988 -85.843 441.264
lowerback -2.17526 -2.44436 -7.62084
upperback 0.985449 -3.02645 -0.554123
thorax 2.60909 -1.63533 3.54812
lowerneck -21.6347 2.73553 -1.51997
upperneck 34.6514 3.15598 1.90516
head 15.8598 1.08261 1.61599
rclavicle -3.68336e-014 -2.11706e-014
rhumerus -41.3087 -22.7329 -68.8254
rradius 21.3798
rwrist 3.4181
rhand -8.4516 -30.8671
rfingers 7.12502
rthumb 17.4743 -60.1017
lclavicle -3.68336e-014 -2.11706e-014
lhumerus -20.4417 1.11373 84.8855
lradius 20.8878
lwrist 0.048589
lhand -21.3576 -10.9192
lfingers 7.12502
lthumb 5.02906 19.0011
rfemur -22.439 -16.3873 11.4628
rtibia 60.4831
rfoot -11.1661 -7.48257
rtoes 10.0585
lfemur 0.302887 -1.65138 -27.3978
ltibia 23.2129
lfoot -18.8898 7.10074
ltoes 8.70982
1493
root -6.10317 16.7496 -4.46962 281.117 -85.6737 438.198
lowerback -1.94496 -2.60972 -7.839
upperback 0.74129 -3.27366 -0.455047
thorax 2.27391 -1.74397 3.77589
lowerneck -21.4318 2.77667 -1.55463
upperneck 34.7595 3.25422 1.79316
head 15.8645 1.0937 1.5893
rclavicle -1.22156e-014 -8.189e-015
rhumerus -42.2734 -23.0944 -67.7329
rradius 21.1844
rwrist 3.79946
rhand -8.45728 -30.8681
rfingers 7.12502
rthumb 17.4688 -60.1032
lclavicle -1.22156e-014 -8.189e-015
lhumerus -20.5247 0.0940147 85.0922
lradius 21.6575
lwrist 1.10253
lhand -21.6402 -10.1489
lfingers 7.12502
lthumb 4.75623 19.7777
rfemur -23.0569 -16.3675 11.7154
rtibia 58.8694
rfoot -11.8022 -8.05437
rtoes 9.01166
lfemur 0.812086 -1.54673 -27.5399
ltibia 23.1198
lfoot -19.3879 6.66093
ltoes 7.22055
1494
root -6.23785 16.7402 -4.46112 283.697 -85.3122 435.664
lowerback -2.17975 -2.77422 -8.07228
upperback 0.881193 -3.45752 -0.511278
thorax 2.58588 -1.85397 3.82025
lowerneck -21.5979 2.78655 -1.51862
upperneck 34.6873 3.32405 1.65008
head 15.8716 1.11084 1.53804
rclavicle -4.39611e-014 1.00635e-015
rhumerus -42.5936 -23.6313 -67.1183
rradius 21.0727
rwrist 4.01708
rhand -8.40857 -31.0482
rfingers 7.12502
rthumb 17.5157 -60.2791
lclavicle -4.39611e-014 1.00635e-015
lhumerus -19.9761 -0.654128 85.0824
lradius 22.3742
lwrist 2.13067
lhand -21.8047 -9.81732
lfingers 7.12502
lthumb 4.59737 20.1128
rfemur -23.6008 -16.4838 11.6658
rtibia 57.1568
rfoot -12.0879 -8.37786
rtoes 8.86335
lfemur 1.46237 -1.49078 -27.8906
ltibia 22.7989
lfoot -19.6292 6.28704
ltoes 6.14571
1495
root -6.37871 16.737 -4.45792 284.502 -84.9282 434.881
lowerback -2.33385 -2.84212 -8.38133
upperback 0.96927 -3.51887 -0.603301
thorax 2.78636 -1.89932 3.88138
lowerneck -21.732 2.79551 -1.41387
upperneck 34.6296 3.35613 1.52336
head 15.8805 1.12347 1.47426
rclavicle -6.12639e-014 -3.08862e-014
rhumerus -42.9829 -23.9332 -66.6894
rradius 21.0312
rwrist 3.83275
rhand -8.43685 -31.3376
rfingers 7.12502
rthumb 17.4885 -60.5709
lclavicle -6.12639e-014 -3.08862e-014
lhumerus -19.4277 -1.13996 85.033
lradius 22.8272
lwrist 2.86247
lhand -22.027 -10.1108
lfingers 7.12502
lthumb 4.38269 19.8239
rfemur -24.0268 -16.4136 11.5872
rtibia 55.2974
rfoot -12.4081 -8.60401
rtoes 9.75223
lfemur 2.16602 -1.56945 -28.281
ltibia 22.356
lfoot -19.5894 6.40756
ltoes 5.78893
1496
root -6.52043 16.7332 -4.46992 284.743 -84.8482 434.742
lowerback -2.34631 -2.85133 -8.59956
upperback 0.877624 -3.52801 -0.558559
thorax 2.71593 -1.90244 4.05073
lowerneck -21.7557 2.80991 -1.35249
upperneck 34.5862 3.39079 1.43964
head 15.8681 1.13609 1.43451
rclavicle 4.04975e-015 -2.28602e-015
rhumerus -43.5572 -24.048 -66.1993
rradius 20.9245
rwrist 3.55499
rhand -8.72001 -31.4754
rfingers 7.12502
rthumb 17.2159 -60.7328
lclavicle 4.04975e-015 -2.28602e-015
lhumerus -19.111 -1.73991 85.0651
lradius 23.2398
lwrist 3.55035
lhand -22.0717 -10.2345
lfingers 7.12502
lthumb 4.33955 19.701
rfemur -24.5207 -15.8814 11.976
rtibia 53.2987
rfoot -12.7614 -8.94331
rtoes 10.067
lfemur 2.83556 -1.56932 -28.2825
ltibia 21.8368
lfoot -19.5337 6.48922
ltoes 5.74851
1497
root -6.66188 16.7319 -4.4922 285.081 -85.1747 434.536
lowerback -2.1914 -2.82328 -8.58089
upperback 0.607216 -3.52155 -0.36026
thorax 2.35726 -1.87753 4.264
lowerneck -21.5483 2.75771 -1.50127
upperneck 34.6127 3.29472 1.60457
head 15.826 1.09746 1.50758
rclavicle -1.13696e-014 2.38542e-015
rhumerus -44.4929 -24.2539 -65.3948
rradius 20.7889
rwrist 3.62611
rhand -8.93582 -31.6084
rfingers 7.12502
rthumb 17.0082 -60.8838
lclavicle -1.13696e-014 2.38542e-015
lhumerus -19.1118 -2.31824 85.1014
lradius 23.7159
lwrist 4.00326
lhand -21.9379 -9.90706
lfingers 7.12502
lthumb 4.46875 20.0258
rfemur -24.9667 -14.8486 12.884
rtibia 51.0937
rfoot -13.1759 -9.51932
rtoes 9.78904
lfemur 3.49125 -1.42152 -27.7851
ltibia 21.2775
lfoot -19.5994 6.16323
ltoes 5.29087
